#!OML:ASF H:\Terrain\Patient Classification 1\Terrain2\Thursday\justin.ASF
:FULLY-SPECIFIED
:DEGREES
3270
root 9.46942 26.7724 -1.48869 -722.659 1.83416 0.257383
lowerback 8.06963 0.0647056 -0.0564939
upperback 3.01608 0.128906 2.27245
thorax -1.41109 0.0553919 2.36416
lowerneck -12.4885 -1.94763 -9.51649
upperneck 41.098 -1.18849 2.96473
head 17.2596 -1.54649 2.86578
rclavicle -8.44835e-015 1.66979e-014
rhumerus -30.7964 -19.8576 -73.4051
rradius 22.7455
rwrist -7.02665
rhand -21.8534 14.1083
rfingers 7.12502
rthumb 4.55028 -15.8228
lclavicle -8.44835e-015 1.66979e-014
lhumerus -34.8801 8.32218 85.1831
lradius 27.7764
lwrist -0.00845014
lhand -17.9015 19.5984
lfingers 7.12502
lthumb 8.36541 49.4128
rfemur -18.3396 -7.70797 19.5025
rtibia 60.7602
rfoot -11.6451 -1.22163
rtoes -6.40123
lfemur -4.03802 1.80063 -22.4162
ltibia 27.1233
lfoot -17.1953 -7.09561
ltoes 2.22331
3271
root 9.48223 26.7603 -1.44656 -722.848 1.97643 0.579568
lowerback 8.08868 0.0360698 -0.35111
upperback 3.09283 0.0642586 2.1183
thorax -1.33976 0.0215473 2.37657
lowerneck -12.3892 -1.90826 -9.39017
upperneck 41.0326 -1.12935 2.84669
head 17.1882 -1.51647 2.79669
rclavicle 7.7526e-015 -2.8625e-014
rhumerus -31.1344 -20.8788 -72.8346
rradius 22.5376
rwrist -5.07145
rhand -21.1066 14.3277
rfingers 7.12502
rthumb 5.27146 -15.5867
lclavicle 7.7526e-015 -2.8625e-014
lhumerus -34.8247 8.3729 85.0213
lradius 27.7596
lwrist -0.164266
lhand -17.9029 20.2465
lfingers 7.12502
lthumb 8.36408 50.0609
rfemur -19.0937 -7.89743 19.0171
rtibia 62.3468
rfoot -12.1837 -0.983415
rtoes -5.93555
lfemur -3.42162 1.50989 -22.8881
ltibia 26.6668
lfoot -17.1571 -6.52402
ltoes 1.72274
3272
root 9.49497 26.7555 -1.3998 -723.036 1.98989 0.756935
lowerback 8.14643 0.0192411 -0.569951
upperback 3.16122 0.0232002 2.0493
thorax -1.29914 -0.000529624 2.43241
lowerneck -12.364 -1.86203 -9.29753
upperneck 40.969 -1.02915 2.69831
head 17.1348 -1.47938 2.7273
rclavicle -5.46658e-015 -1.43125e-014
rhumerus -31.3607 -21.6497 -72.3311
rradius 22.3494
rwrist -3.35649
rhand -20.2761 13.9842
rfingers 7.12502
rthumb 6.07329 -15.9087
lclavicle -5.46658e-015 -1.43125e-014
lhumerus -34.8125 8.3236 85.0222
lradius 27.8546
lwrist 0.241352
lhand -18.3892 20.7653
lfingers 7.12502
lthumb 7.89473 50.5979
rfemur -19.9343 -7.85795 18.676
rtibia 63.7507
rfoot -12.4559 -0.508714
rtoes -2.45169
lfemur -2.78585 1.34715 -23.1788
ltibia 26.1852
lfoot -17.1256 -6.034
ltoes 1.39171
3273
root 9.50205 26.7668 -1.34852 -723.267 2.06 0.787183
lowerback 8.26162 -0.0118097 -0.763932
upperback 3.20418 -0.0322974 2.08797
thorax -1.31532 -0.0296687 2.58747
lowerneck -12.3508 -1.83312 -9.39427
upperneck 41.0412 -0.934241 2.6494
head 17.1667 -1.46492 2.7406
rclavicle -1.19271e-015 -4.77083e-015
rhumerus -31.493 -21.5542 -72.2504
rradius 22.3318
rwrist -3.50006
rhand -20.0756 13.5322
rfingers 7.12502
rthumb 6.26681 -16.3551
lclavicle -1.19271e-015 -4.77083e-015
lhumerus -34.872 8.08577 85.1593
lradius 27.9499
lwrist 0.833062
lhand -19.1008 19.9566
lfingers 7.12502
lthumb 7.20789 49.8139
rfemur -20.7207 -7.75241 18.5637
rtibia 64.9901
rfoot -12.9415 -0.543205
rtoes -2.67329
lfemur -2.07369 1.21185 -23.2404
ltibia 25.6778
lfoot -17.0768 -5.86973
ltoes 1.60726
3274
root 9.50379 26.7747 -1.29704 -723.541 2.249 0.762556
lowerback 8.35026 -0.0817104 -0.971501
upperback 3.29898 -0.140533 2.17424
thorax -1.25959 -0.0866466 2.80439
lowerneck -12.3682 -1.78435 -9.50702
upperneck 41.069 -0.800511 2.60224
head 17.1782 -1.43511 2.76327
rclavicle 7.95139e-016 0
rhumerus -31.5565 -21.2831 -72.2604
rradius 22.344
rwrist -3.74981
rhand -20.078 13.3424
rfingers 7.12502
rthumb 6.26453 -16.545
lclavicle 7.95139e-016 0
lhumerus -34.8921 7.96186 85.2687
lradius 28.0085
lwrist 1.17141
lhand -19.2495 18.7349
lfingers 7.12502
lthumb 7.06434 48.597
rfemur -21.4319 -7.77065 18.5606
rtibia 66.1466
rfoot -13.4409 -0.756271
rtoes -3.43772
lfemur -1.29776 1.1771 -23.1964
ltibia 25.1254
lfoot -17.0328 -5.88442
ltoes 1.26606
3275
root 9.50759 26.771 -1.24727 -723.737 2.37062 1.0616
lowerback 8.36879 -0.119924 -1.44263
upperback 3.43009 -0.230232 2.12905
thorax -1.12671 -0.13713 3.03167
lowerneck -12.5991 -1.73505 -9.49496
upperneck 41.1142 -0.66957 2.53106
head 17.2521 -1.39144 2.75356
rclavicle 6.26172e-015 1.59028e-014
rhumerus -31.568 -21.0162 -72.3684
rradius 22.358
rwrist -3.97498
rhand -20.2333 13.3262
rfingers 7.12502
rthumb 6.1146 -16.5656
lclavicle 6.26172e-015 1.59028e-014
lhumerus -34.7807 8.01352 85.2785
lradius 28.0615
lwrist 1.36938
lhand -19.1478 18.7715
lfingers 7.12502
lthumb 7.16248 48.6303
rfemur -22.1903 -7.83644 18.1995
rtibia 67.2988
rfoot -13.5523 -0.930846
rtoes -3.24752
lfemur -0.639475 1.10164 -23.5595
ltibia 24.6001
lfoot -16.9196 -5.71154
ltoes 0.815792
3276
root 9.51496 26.7739 -1.19461 -723.821 2.46716 1.33479
lowerback 8.29363 -0.142324 -1.81851
upperback 3.49362 -0.290216 2.05375
thorax -1.0135 -0.171741 3.17058
lowerneck -12.6775 -1.68849 -9.45597
upperneck 41.1665 -0.585787 2.499
head 17.2939 -1.35765 2.74838
rclavicle 7.45443e-015 1.59028e-015
rhumerus -31.682 -21.0022 -72.3786
rradius 22.3121
rwrist -4.12926
rhand -20.512 13.3274
rfingers 7.12502
rthumb 5.84551 -16.572
lclavicle 7.45443e-015 1.59028e-015
lhumerus -34.7239 7.97082 85.2551
lradius 28.0984
lwrist 1.40816
lhand -19.3038 20.0873
lfingers 7.12502
lthumb 7.01191 49.9512
rfemur -23.025 -7.96402 17.8833
rtibia 68.4159
rfoot -13.5042 -1.29968
rtoes -3.66516
lfemur -0.161739 0.886772 -23.9297
ltibia 24.1841
lfoot -16.7575 -5.39061
ltoes 0.598504
3277
root 9.52258 26.7785 -1.13873 -723.903 2.6646 1.20906
lowerback 8.2012 -0.22048 -1.81323
upperback 3.47352 -0.391365 2.12692
thorax -0.975716 -0.223003 3.25176
lowerneck -12.3101 -1.61682 -9.45326
upperneck 41.0652 -0.488279 2.41857
head 17.1329 -1.32376 2.72306
rclavicle 1.17283e-014 -2.70347e-014
rhumerus -31.9029 -21.2486 -72.1093
rradius 22.1229
rwrist -3.97804
rhand -20.5725 13.562
rfingers 7.12502
rthumb 5.78707 -16.3389
lclavicle 1.17283e-014 -2.70347e-014
lhumerus -34.9115 7.96805 85.2315
lradius 28.1544
lwrist 1.17634
lhand -19.0474 20.0663
lfingers 7.12502
lthumb 7.2594 49.9218
rfemur -23.8103 -8.31243 18.0296
rtibia 69.4369
rfoot -13.4611 -1.875
rtoes -3.18955
lfemur 0.310294 0.737738 -23.8301
ltibia 23.8284
lfoot -16.8281 -5.14379
ltoes -1.48336
3278
root 9.52779 26.7747 -1.08646 -724.156 2.85031 1.02704
lowerback 8.32755 -0.296631 -1.77242
upperback 3.5467 -0.489017 2.23924
thorax -0.96207 -0.273253 3.35503
lowerneck -12.2805 -1.59325 -9.48337
upperneck 41.101 -0.401776 2.31386
head 17.1402 -1.30837 2.69623
rclavicle 1.39149e-015 -3.33958e-014
rhumerus -31.9912 -21.4969 -71.8518
rradius 22.0182
rwrist -3.70123
rhand -20.3365 13.9625
rfingers 7.12502
rthumb 6.01492 -15.9321
lclavicle 1.39149e-015 -3.33958e-014
lhumerus -35.009 8.08713 85.2098
lradius 28.2787
lwrist 0.781027
lhand -18.3942 18.6965
lfingers 7.12502
lthumb 7.88984 48.5293
rfemur -24.4251 -8.64782 18.2315
rtibia 70.2888
rfoot -13.3692 -2.47888
rtoes -1.33998
lfemur 0.990533 0.614165 -23.6604
ltibia 23.4562
lfoot -17.0672 -4.95834
ltoes -3.58992
3279
root 9.53127 26.781 -1.03285 -724.419 2.9465 0.740639
lowerback 8.48742 -0.328265 -1.57226
upperback 3.67939 -0.516374 2.31864
thorax -0.912335 -0.287886 3.32782
lowerneck -12.6587 -1.63409 -9.38857
upperneck 41.2877 -0.401079 2.20993
head 17.3446 -1.31513 2.63867
rclavicle 3.97569e-015 3.97569e-015
rhumerus -31.9915 -21.6944 -71.7892
rradius 21.9943
rwrist -3.57566
rhand -20.1272 14.0522
rfingers 7.12502
rthumb 6.21705 -15.8366
lclavicle 3.97569e-015 3.97569e-015
lhumerus -34.9298 7.8944 85.252
lradius 28.3872
lwrist 0.882382
lhand -18.2343 18.2441
lfingers 7.12502
lthumb 8.04418 48.071
rfemur -25.1084 -8.67759 18.5521
rtibia 70.9174
rfoot -13.2129 -2.72277
rtoes 0.884495
lfemur 1.67759 0.442677 -23.3874
ltibia 23.0577
lfoot -17.1285 -4.78141
ltoes -4.36097
3280
root 9.53776 26.7874 -0.974133 -724.577 3.12734 0.534211
lowerback 8.47788 -0.407206 -1.43071
upperback 3.71497 -0.610115 2.34368
thorax -0.865252 -0.33458 3.28178
lowerneck -12.6706 -1.60473 -9.27467
upperneck 41.3565 -0.390575 2.21135
head 17.3833 -1.2957 2.62261
rclavicle 1.98785e-016 1.43125e-014
rhumerus -32.2142 -21.885 -71.7063
rradius 22.0074
rwrist -3.45569
rhand -19.9407 13.8347
rfingers 7.12502
rthumb 6.39707 -16.0487
lclavicle 1.98785e-016 1.43125e-014
lhumerus -34.9801 7.63917 85.2543
lradius 28.3832
lwrist 1.22413
lhand -18.6074 18.2954
lfingers 7.12502
lthumb 7.68407 48.1358
rfemur -25.9029 -8.81029 18.7653
rtibia 71.4906
rfoot -13.0529 -2.92219
rtoes 1.84162
lfemur 2.26944 0.234184 -23.2219
ltibia 22.6566
lfoot -17.1949 -4.62168
ltoes -4.84629
3281
root 9.54356 26.7862 -0.91533 -724.67 3.31517 0.652527
lowerback 8.39223 -0.478276 -1.68659
upperback 3.74349 -0.724288 2.32865
thorax -0.77715 -0.395671 3.4196
lowerneck -12.6762 -1.55016 -9.30983
upperneck 41.4468 -0.333871 2.30853
head 17.4307 -1.2686 2.68628
rclavicle -2.56432e-014 1.35174e-014
rhumerus -32.4129 -22.048 -71.6149
rradius 22.0453
rwrist -3.27763
rhand -19.9882 13.6172
rfingers 7.12502
rthumb 6.35123 -16.2676
lclavicle -2.56432e-014 1.35174e-014
lhumerus -34.9344 7.76268 85.1615
lradius 28.2562
lwrist 0.973062
lhand -18.6998 18.4915
lfingers 7.12502
lthumb 7.59488 48.3351
rfemur -26.7375 -9.0453 18.6006
rtibia 72.0185
rfoot -13.3084 -3.1189
rtoes 0.961554
lfemur 2.78417 0.173517 -23.3818
ltibia 22.3172
lfoot -17.3811 -4.63231
ltoes -4.76171
3282
root 9.54315 26.7841 -0.857534 -724.653 3.3695 0.70833
lowerback 8.2526 -0.472341 -1.9643
upperback 3.78494 -0.73584 2.3857
thorax -0.651168 -0.40732 3.63468
lowerneck -12.9396 -1.58453 -9.39327
upperneck 41.5494 -0.33642 2.33349
head 17.5616 -1.28388 2.7169
rclavicle -1.49089e-015 7.95139e-015
rhumerus -32.4558 -22.0214 -71.6114
rradius 22.1049
rwrist -3.42107
rhand -20.2001 13.5968
rfingers 7.12502
rthumb 6.14661 -16.294
lclavicle -1.49089e-015 7.95139e-015
lhumerus -34.811 7.94911 85.1566
lradius 28.2518
lwrist 0.515976
lhand -18.4745 18.8912
lfingers 7.12502
lthumb 7.8124 48.7269
rfemur -27.6705 -9.18468 18.6257
rtibia 72.5331
rfoot -13.6007 -3.39493
rtoes -0.0637644
lfemur 3.08385 0.26419 -23.4169
ltibia 22.1187
lfoot -17.391 -4.81581
ltoes -4.17171
3283
root 9.54197 26.7765 -0.801603 -724.749 3.48502 0.493689
lowerback 8.31748 -0.510277 -1.9407
upperback 3.75009 -0.783224 2.48292
thorax -0.718035 -0.430032 3.72794
lowerneck -12.8927 -1.57163 -9.42933
upperneck 41.5529 -0.337198 2.39621
head 17.5511 -1.28152 2.75216
rclavicle 8.84592e-015 -2.3059e-014
rhumerus -32.7579 -21.8837 -71.5952
rradius 22.3632
rwrist -3.67155
rhand -20.1967 13.4088
rfingers 7.12502
rthumb 6.14993 -16.4819
lclavicle 8.84592e-015 -2.3059e-014
lhumerus -34.9755 7.8512 85.1614
lradius 28.436
lwrist 0.110897
lhand -18.2139 19.1145
lfingers 7.12502
lthumb 8.06389 48.9407
rfemur -28.3968 -9.45539 19.0227
rtibia 73.0051
rfoot -13.1901 -4.18539
rtoes 0.431913
lfemur 3.42246 0.302962 -23.14
ltibia 21.9973
lfoot -17.32 -5.12323
ltoes -2.458
